<svg width="30" height="32" viewBox="0 0 30 32" fill="none" xmlns="http://www.w3.org/2000/svg">
<path fill-rule="evenodd" clip-rule="evenodd" d="M1 5.03329V15.216C1.08025 22.1081 5.45774 28.2161 11.9587 30.5066L13.4533 31.0586C14.4518 31.4253 15.5482 31.4253 16.5467 31.0586L18.0413 30.5066C24.5423 28.2161 28.9198 22.1081 29 15.216V5.03329C28.9973 4.21555 28.5074 3.47814 27.7547 3.15862C23.7157 1.47283 19.3764 0.625019 15 0.666621C10.6236 0.625019 6.28428 1.47283 2.24533 3.15862C1.4926 3.47814 1.00274 4.21555 1 5.03329Z" stroke="#FF6D00" stroke-linecap="round" stroke-linejoin="round"/>
<path fill-rule="evenodd" clip-rule="evenodd" d="M9 13.324C9 12.7717 9.44772 12.324 10 12.324H20C20.5523 12.324 21 12.7717 21 13.324V21.9893C21 22.5416 20.5523 22.9893 20 22.9893H10C9.44772 22.9893 9 22.5416 9 21.9893V13.324Z" stroke="#FF6D00" stroke-linecap="round" stroke-linejoin="round"/>
<path fill-rule="evenodd" clip-rule="evenodd" d="M15 19.4079C15.9205 19.4079 16.6667 18.6617 16.6667 17.7413C16.6667 16.8208 15.9205 16.0746 15 16.0746C14.0795 16.0746 13.3333 16.8208 13.3333 17.7413C13.3333 18.6617 14.0795 19.4079 15 19.4079Z" stroke="#FF6D00" stroke-linecap="round" stroke-linejoin="round"/>
<path fill-rule="evenodd" clip-rule="evenodd" d="M18.3333 10.3239C18.3333 8.48299 16.8409 6.9906 15 6.9906C13.159 6.9906 11.6667 8.48299 11.6667 10.3239V12.3239H18.3333V10.3239Z" stroke="#FF6D00" stroke-linecap="round" stroke-linejoin="round"/>
</svg>
