<svg width="525" height="219" viewBox="0 0 525 219" fill="none" xmlns="http://www.w3.org/2000/svg">
<g opacity="0.48">
<path opacity="0.48" d="M459 158.634C463.78 158.634 468.452 160.052 472.426 162.708C476.4 165.365 479.498 169.141 481.327 173.559C483.156 177.976 483.635 182.837 482.702 187.527C481.77 192.217 479.468 196.525 476.088 199.906C472.709 203.287 468.403 205.59 463.715 206.523C459.027 207.456 454.168 206.977 449.752 205.147C445.336 203.317 441.562 200.218 438.906 196.243C436.251 192.267 434.833 187.592 434.833 182.811C434.833 176.399 437.379 170.249 441.912 165.715C446.444 161.181 452.591 158.634 459 158.634ZM459 153.798C453.264 153.798 447.658 155.5 442.888 158.688C438.119 161.876 434.402 166.407 432.208 171.708C430.013 177.009 429.438 182.843 430.557 188.471C431.676 194.098 434.438 199.268 438.494 203.325C442.55 207.383 447.717 210.146 453.342 211.265C458.968 212.385 464.799 211.81 470.098 209.614C475.397 207.419 479.926 203.7 483.113 198.929C486.299 194.158 488 188.549 488 182.811C488 175.116 484.945 167.737 479.506 162.296C474.068 156.855 466.691 153.798 459 153.798Z" fill="#113B65"/>
</g>
<g opacity="0.48">
<path opacity="0.48" d="M134.42 73.6219C136.318 73.6219 138.174 74.1851 139.752 75.2403C141.331 76.2954 142.561 77.7952 143.288 79.5499C144.014 81.3046 144.204 83.2354 143.834 85.0982C143.464 86.9609 142.549 88.672 141.207 90.015C139.864 91.358 138.154 92.2726 136.292 92.6431C134.43 93.0136 132.5 92.8235 130.746 92.0966C128.992 91.3698 127.493 90.139 126.438 88.5599C125.384 86.9807 124.821 85.124 124.821 83.2248C124.821 80.6779 125.832 78.2354 127.632 76.4345C129.432 74.6336 131.874 73.6219 134.42 73.6219ZM134.42 70.421C131.888 70.421 129.414 71.1719 127.309 72.5788C125.204 73.9857 123.564 75.9854 122.595 78.325C121.627 80.6646 121.373 83.239 121.867 85.7227C122.361 88.2064 123.58 90.4878 125.37 92.2784C127.16 94.0691 129.44 95.2885 131.923 95.7826C134.405 96.2766 136.979 96.023 139.317 95.0539C141.656 94.0848 143.655 92.4437 145.061 90.3382C146.467 88.2326 147.218 85.7571 147.218 83.2248C147.218 79.829 145.87 76.5723 143.469 74.1711C141.069 71.7699 137.814 70.421 134.42 70.421Z" fill="#113B65"/>
</g>
<g opacity="0.48">
<path opacity="0.48" d="M21.6338 141.458L3.884 159.199C2.76161 161.505 1.87456 163.918 1.23633 166.402L28.8329 138.809C26.349 139.444 23.9367 140.331 21.6338 141.458Z" fill="#113B65"/>
<path opacity="0.48" d="M39.0473 137.641L0.0361328 176.629C0.0600585 178.041 0.161533 179.452 0.340096 180.854L43.2708 137.905C41.8688 137.74 40.4589 137.652 39.0473 137.641Z" fill="#113B65"/>
<path opacity="0.48" d="M76.5383 113.674L2.01953 188.224C2.38749 189.336 2.81943 190.425 3.28338 191.489L82.2176 112.521C80.3037 112.795 78.4073 113.179 76.5383 113.674Z" fill="#113B65"/>
<path opacity="0.48" d="M91.7529 112.033C93.1608 112.089 94.5526 112.209 95.9284 112.385L91.7529 112.033Z" fill="#113B65"/>
<path opacity="0.48" d="M91.7528 112.033L6.4834 197.339C7.09132 198.235 7.73124 199.107 8.40316 199.948L95.9283 112.385C94.5525 112.209 93.1607 112.089 91.7528 112.033Z" fill="#113B65"/>
<path opacity="0.48" d="M103.472 113.89C104.632 114.218 105.775 114.586 106.895 114.994L103.472 113.89Z" fill="#113B65"/>
<path opacity="0.48" d="M103.472 113.89L12.835 204.605C13.6349 205.325 14.4348 206.005 15.3147 206.653L106.895 114.994C105.775 114.586 104.632 114.218 103.472 113.89Z" fill="#113B65"/>
<path opacity="0.48" d="M113.19 117.747C114.182 118.259 115.15 118.795 116.094 119.348L113.19 117.747Z" fill="#113B65"/>
<path opacity="0.48" d="M113.19 117.747L20.833 210.143C21.8409 210.663 22.8728 211.143 23.9286 211.575L116.093 119.372C115.149 118.795 114.181 118.259 113.19 117.747Z" fill="#113B65"/>
<path opacity="0.48" d="M121.429 123.093C122.229 123.757 123.077 124.453 123.876 125.165L121.429 123.093Z" fill="#113B65"/>
<path opacity="0.48" d="M121.428 123.093L30.8877 213.664C32.1939 213.923 33.5129 214.113 34.8392 214.232L123.876 125.165C123.076 124.453 122.26 123.757 121.428 123.093Z" fill="#113B65"/>
<path opacity="0.48" d="M128.356 129.743C129.052 130.543 129.724 131.391 130.372 132.247L128.356 129.743Z" fill="#113B65"/>
<path opacity="0.48" d="M128.356 129.743L43.7188 214.416H48.2382L130.372 132.247C129.724 131.391 129.052 130.551 128.356 129.743Z" fill="#113B65"/>
<path opacity="0.48" d="M133.979 137.689C134.539 138.657 135.067 139.634 135.579 140.642L133.979 137.689Z" fill="#113B65"/>
<path opacity="0.48" d="M133.979 137.689L57.293 214.416H61.8124L135.555 140.642C135.067 139.634 134.539 138.657 133.979 137.689Z" fill="#113B65"/>
<path opacity="0.48" d="M138.187 147.06C138.57 148.212 138.906 149.388 139.202 150.573L138.187 147.06Z" fill="#113B65"/>
<path opacity="0.48" d="M138.187 147.06L70.8672 214.416H75.3946L139.219 150.573C138.907 149.388 138.571 148.212 138.187 147.06Z" fill="#113B65"/>
<path opacity="0.48" d="M141.482 157.343C142.317 158.009 143.118 158.717 143.882 159.463L141.482 157.343Z" fill="#113B65"/>
<path opacity="0.48" d="M141.482 157.343L84.4414 214.416H88.9688L143.89 159.463C143.124 158.717 142.32 158.009 141.482 157.343Z" fill="#113B65"/>
<path opacity="0.48" d="M148.018 164.369C148.637 165.277 149.208 166.217 149.729 167.186L148.018 164.369Z" fill="#113B65"/>
<path opacity="0.48" d="M148.018 164.369L98 214.416H102.527L149.722 167.202C149.204 166.228 148.635 165.283 148.018 164.369Z" fill="#113B65"/>
<path opacity="0.48" d="M152.369 173.652C152.709 174.87 152.976 176.107 153.169 177.357L152.369 173.652Z" fill="#113B65"/>
<path opacity="0.48" d="M152.369 173.652L111.574 214.464H116.102L153.169 177.373C152.977 176.118 152.71 174.875 152.369 173.652Z" fill="#113B65"/>
<path opacity="0.48" d="M153.369 186.199C153.14 188.144 152.736 190.065 152.161 191.937L153.369 186.199Z" fill="#113B65"/>
<path opacity="0.48" d="M152.161 191.937C152.735 190.065 153.14 188.144 153.369 186.199L125.372 214.208C127.317 213.981 129.237 213.574 131.107 212.991L152.161 191.937Z" fill="#113B65"/>
</g>
<g opacity="0.48">
<path opacity="0.48" d="M385.568 43.7288L369.464 59.8389C368.449 61.9223 367.647 64.1027 367.068 66.347L392.116 41.3318C389.858 41.9075 387.664 42.7106 385.568 43.7288Z" fill="#113B65"/>
<path opacity="0.48" d="M401.381 40.2715L365.979 75.6587C365.998 76.9412 366.09 78.2217 366.255 79.4938L405.185 40.5184C403.924 40.3558 402.653 40.2734 401.381 40.2715Z" fill="#113B65"/>
<path opacity="0.48" d="M435.416 18.4812L367.778 86.147C368.112 87.1494 368.49 88.1372 368.926 89.0524L440.57 17.3626C438.832 17.6372 437.111 18.0107 435.416 18.4812Z" fill="#113B65"/>
<path opacity="0.48" d="M449.227 17.0286C450.504 17.0286 451.768 17.1883 453.016 17.3481L449.227 17.0286Z" fill="#113B65"/>
<path opacity="0.48" d="M449.226 17.0286L371.787 94.4563C372.339 95.2698 372.92 96.0543 373.53 96.8242L452.972 17.3481C451.767 17.1883 450.504 17.0286 449.226 17.0286Z" fill="#113B65"/>
<path opacity="0.48" d="M459.87 18.7136C460.916 19.0042 461.947 19.3528 462.978 19.716L459.87 18.7136Z" fill="#113B65"/>
<path opacity="0.48" d="M459.871 18.7136L377.597 101.052C378.308 101.705 379.049 102.315 379.847 102.911L463.007 19.716C461.947 19.3528 460.916 19.0042 459.871 18.7136Z" fill="#113B65"/>
<path opacity="0.48" d="M468.684 22.2146C469.584 22.6795 470.455 23.1734 471.326 23.6673L468.684 22.2146Z" fill="#113B65"/>
<path opacity="0.48" d="M468.683 22.2146L384.855 106.078C385.77 106.557 386.7 106.993 387.658 107.385L471.326 23.6818C470.527 23.1734 469.584 22.6795 468.683 22.2146Z" fill="#113B65"/>
<path opacity="0.48" d="M476.162 27.0666C476.917 27.6767 477.614 28.3015 478.384 28.9552L476.162 27.0666Z" fill="#113B65"/>
<path opacity="0.48" d="M476.162 27.0666L393.976 109.274C395.161 109.514 396.358 109.689 397.562 109.797L478.384 28.9552C477.658 28.3015 476.918 27.6767 476.162 27.0666Z" fill="#113B65"/>
<path opacity="0.48" d="M482.45 33.0952C483.089 33.8361 483.684 34.5479 484.28 35.3759L482.45 33.0952Z" fill="#113B65"/>
<path opacity="0.48" d="M482.449 33.0952L405.62 110H409.729L484.278 35.4195C483.683 34.606 483.088 33.8361 482.449 33.0952Z" fill="#113B65"/>
<path opacity="0.48" d="M487.561 40.2715C488.054 41.1431 488.533 42.0438 489.013 42.9444L487.561 40.2715Z" fill="#113B65"/>
<path opacity="0.48" d="M487.562 40.2715L417.95 110H422.06L488.985 43.0316C488.535 42.0873 488.056 41.1866 487.562 40.2715Z" fill="#113B65"/>
<path opacity="0.48" d="M491.379 48.8277C491.718 49.8736 492.023 50.9341 492.294 52.0091L491.379 48.8277Z" fill="#113B65"/>
<path opacity="0.48" d="M491.381 48.8277L430.264 110H434.373L492.31 52.0091C492.03 50.9631 491.72 49.9027 491.381 48.8277Z" fill="#113B65"/>
<path opacity="0.48" d="M494.372 58.1539C495.127 58.7641 495.824 59.4033 496.55 60.086L494.372 58.1539Z" fill="#113B65"/>
<path opacity="0.48" d="M494.372 58.1539L442.592 110H446.701L496.551 60.1296C495.854 59.4032 495.127 58.7641 494.372 58.1539Z" fill="#113B65"/>
<path opacity="0.48" d="M500.311 64.5311C500.877 65.3592 501.385 66.2163 501.864 67.0879L500.311 64.5311Z" fill="#113B65"/>
<path opacity="0.48" d="M500.311 64.5311L454.905 110H459.015L501.865 67.1314C501.386 66.2162 500.878 65.3592 500.311 64.5311Z" fill="#113B65"/>
<path opacity="0.48" d="M504.244 72.9276C504.551 74.037 504.798 75.162 504.985 76.2978L504.244 72.9276Z" fill="#113B65"/>
<path opacity="0.48" d="M504.244 72.9276L467.23 110H471.34L504.984 76.3415C504.799 75.191 504.552 74.0514 504.244 72.9276Z" fill="#113B65"/>
<path opacity="0.48" d="M505.16 84.3457C504.951 86.1091 504.581 87.8498 504.057 89.5462L505.16 84.3457Z" fill="#113B65"/>
<path opacity="0.48" d="M504.056 89.5462C504.581 87.8498 504.95 86.1091 505.159 84.3457L479.763 109.738C481.531 109.539 483.276 109.175 484.976 108.649L504.056 89.5462Z" fill="#113B65"/>
</g>
<g opacity="0.48">
<path opacity="0.48" d="M99.2234 35.6506L86.425 54.8563L73.6265 35.6506H99.2234ZM112.022 28.8086H60.8281L86.425 67.22L112.022 28.8086Z" fill="#113B65"/>
</g>
<g opacity="0.48">
<path opacity="0.48" d="M398.214 176.244L391.382 186.456L384.567 176.22H398.166L398.214 176.244ZM404.141 173.02H378.584L391.382 192.225L404.181 173.02H404.141Z" fill="#113B65"/>
</g>
<path d="M236.806 83.2248C236.806 79.6891 233.941 76.8229 230.407 76.8229C226.873 76.8229 224.008 79.6891 224.008 83.2248V99.2295C224.008 102.765 226.873 105.631 230.407 105.631C233.941 105.631 236.806 102.765 236.806 99.2295V83.2248Z" fill="#113B65"/>
<path d="M300.798 83.2248C300.798 79.6891 297.933 76.8229 294.399 76.8229C290.865 76.8229 288 79.6891 288 83.2248V99.2295C288 102.765 290.865 105.631 294.399 105.631C297.933 105.631 300.798 102.765 300.798 99.2295V83.2248Z" fill="#113B65"/>
<path d="M262.996 204.861C262.792 204.862 262.591 204.821 262.404 204.741C262.13 204.85 261.831 204.882 261.54 204.832C261.249 204.782 260.978 204.653 260.756 204.458C260.534 204.263 260.37 204.011 260.283 203.729C260.195 203.447 260.188 203.146 260.26 202.86C260.625 201.422 260.808 199.943 260.804 198.459C260.804 198.035 260.973 197.628 261.273 197.327C261.573 197.027 261.98 196.859 262.404 196.859C262.828 196.859 263.235 197.027 263.535 197.327C263.835 197.628 264.004 198.035 264.004 198.459C264.003 199.93 264.186 201.395 264.548 202.82C264.652 203.231 264.589 203.666 264.374 204.031C264.158 204.395 263.806 204.659 263.396 204.765C263.268 204.816 263.133 204.849 262.996 204.861Z" fill="#113B65"/>
<path d="M238.198 218.609C238.058 218.606 237.918 218.587 237.782 218.553C234.229 217.589 230.994 215.7 228.407 213.079C228.259 212.93 228.142 212.753 228.062 212.559C227.982 212.364 227.942 212.156 227.942 211.945C227.943 211.735 227.985 211.527 228.066 211.333C228.148 211.139 228.266 210.963 228.415 210.815C228.564 210.667 228.741 210.549 228.936 210.469C229.13 210.39 229.339 210.349 229.549 210.35C229.759 210.35 229.967 210.393 230.161 210.474C230.355 210.555 230.531 210.674 230.679 210.823C232.867 213.043 235.606 214.642 238.614 215.456C238.995 215.551 239.328 215.784 239.549 216.109C239.77 216.434 239.863 216.829 239.812 217.218C239.761 217.608 239.568 217.965 239.27 218.222C238.972 218.478 238.591 218.616 238.198 218.609ZM248.221 218.609C247.828 218.616 247.446 218.478 247.149 218.222C246.851 217.965 246.658 217.608 246.607 217.218C246.555 216.829 246.649 216.434 246.87 216.109C247.091 215.784 247.424 215.551 247.805 215.456C250.81 214.641 253.546 213.042 255.732 210.823C256.03 210.52 256.436 210.349 256.86 210.346C257.285 210.343 257.693 210.509 257.996 210.807C258.298 211.105 258.469 211.511 258.472 211.936C258.475 212.361 258.31 212.769 258.012 213.071C255.426 215.694 252.191 217.583 248.637 218.545C248.502 218.585 248.362 218.607 248.221 218.609Z" fill="#113B65"/>
<path d="M224.6 204.861C224.397 204.862 224.195 204.821 224.008 204.741C223.734 204.85 223.435 204.882 223.145 204.832C222.854 204.782 222.582 204.653 222.36 204.458C222.139 204.263 221.975 204.011 221.887 203.729C221.8 203.447 221.792 203.146 221.865 202.86C222.23 201.422 222.413 199.943 222.409 198.459C222.409 198.035 222.577 197.628 222.877 197.327C223.177 197.027 223.584 196.859 224.008 196.859C224.433 196.859 224.84 197.027 225.14 197.327C225.44 197.628 225.608 198.035 225.608 198.459C225.608 199.93 225.79 201.395 226.152 202.82C226.257 203.231 226.194 203.666 225.978 204.031C225.762 204.395 225.411 204.659 225 204.765C224.872 204.816 224.738 204.849 224.6 204.861Z" fill="#113B65"/>
<path d="M201.211 218.929C201.112 218.941 201.013 218.941 200.915 218.929C197.466 218.256 194.243 216.72 191.548 214.464C191.297 214.174 191.158 213.803 191.158 213.419C191.157 213.035 191.294 212.664 191.545 212.373C191.795 212.082 192.141 211.89 192.521 211.834C192.9 211.777 193.287 211.858 193.612 212.063C195.894 213.955 198.619 215.238 201.531 215.792C201.955 215.831 202.346 216.038 202.619 216.366C202.891 216.694 203.022 217.116 202.983 217.541C202.943 217.965 202.737 218.357 202.409 218.629C202.082 218.901 201.659 219.032 201.235 218.993L201.211 218.929ZM323.724 218.929C323.299 218.969 322.876 218.84 322.548 218.568C322.219 218.296 322.012 217.905 321.972 217.481C321.932 217.056 322.061 216.633 322.333 216.304C322.604 215.976 322.995 215.769 323.42 215.728C326.326 215.148 329.039 213.844 331.307 211.935C331.631 211.661 332.051 211.528 332.474 211.564C332.897 211.6 333.289 211.802 333.562 212.127C333.836 212.452 333.97 212.872 333.934 213.295C333.898 213.718 333.695 214.11 333.37 214.384C330.686 216.641 327.475 218.183 324.036 218.865C323.933 218.89 323.829 218.904 323.724 218.905V218.929ZM314.181 218.393C314.018 218.393 313.856 218.368 313.701 218.321C310.352 217.258 307.326 215.367 304.902 212.823C304.609 212.516 304.451 212.104 304.461 211.679C304.472 211.255 304.65 210.852 304.958 210.559C305.266 210.266 305.677 210.107 306.101 210.118C306.526 210.128 306.929 210.307 307.222 210.615C309.265 212.766 311.818 214.365 314.645 215.264C315.011 215.378 315.325 215.62 315.528 215.946C315.731 216.272 315.81 216.66 315.751 217.039C315.692 217.419 315.498 217.764 315.206 218.013C314.913 218.261 314.541 218.396 314.157 218.393H314.181ZM210.746 218.393C210.365 218.392 209.998 218.256 209.709 218.009C209.42 217.761 209.229 217.419 209.169 217.044C209.11 216.668 209.185 216.284 209.383 215.959C209.581 215.634 209.889 215.391 210.25 215.272C213.07 214.352 215.613 212.733 217.641 210.567C217.785 210.413 217.957 210.29 218.149 210.203C218.341 210.116 218.548 210.068 218.758 210.062C218.968 210.055 219.177 210.09 219.374 210.164C219.571 210.238 219.751 210.351 219.904 210.495C220.058 210.639 220.181 210.811 220.268 211.003C220.355 211.195 220.403 211.402 220.409 211.612C220.416 211.822 220.381 212.032 220.307 212.229C220.233 212.426 220.12 212.606 219.976 212.759C217.564 215.3 214.548 217.189 211.21 218.249C211.06 218.299 210.903 218.326 210.746 218.329V218.393ZM186.949 207.19C186.627 207.189 186.313 207.092 186.048 206.911C185.783 206.73 185.578 206.473 185.461 206.173C184.492 203.717 184.001 201.099 184.013 198.459V196.058C184.013 195.634 184.181 195.227 184.481 194.927C184.782 194.627 185.188 194.458 185.613 194.458C186.037 194.458 186.444 194.627 186.744 194.927C187.044 195.227 187.213 195.634 187.213 196.058V198.459C187.211 200.675 187.626 202.871 188.436 204.933C188.591 205.327 188.584 205.766 188.416 206.154C188.248 206.543 187.933 206.849 187.54 207.006C187.353 207.084 187.152 207.125 186.949 207.126V207.19ZM337.906 207.062C337.707 207.062 337.509 207.027 337.322 206.958C337.126 206.881 336.947 206.768 336.795 206.622C336.643 206.477 336.521 206.303 336.437 206.11C336.352 205.918 336.306 205.711 336.301 205.5C336.297 205.29 336.334 205.081 336.41 204.885C337.2 202.844 337.602 200.672 337.594 198.483V195.922C337.594 195.498 337.762 195.091 338.062 194.791C338.362 194.49 338.769 194.322 339.194 194.322C339.618 194.322 340.025 194.49 340.325 194.791C340.625 195.091 340.793 195.498 340.793 195.922V198.459C340.797 201.029 340.323 203.577 339.394 205.973C339.278 206.274 339.074 206.533 338.808 206.716C338.543 206.898 338.228 206.997 337.906 206.998V207.062ZM185.613 187.968C185.188 187.968 184.782 187.799 184.481 187.499C184.181 187.199 184.013 186.792 184.013 186.367V176.709C184.013 176.284 184.181 175.877 184.481 175.577C184.782 175.277 185.188 175.108 185.613 175.108C186.037 175.108 186.444 175.277 186.744 175.577C187.044 175.877 187.213 176.284 187.213 176.709V186.367C187.213 186.792 187.044 187.199 186.744 187.499C186.444 187.799 186.037 187.968 185.613 187.968ZM339.194 187.832C338.769 187.832 338.362 187.663 338.062 187.363C337.762 187.063 337.594 186.656 337.594 186.231V176.573C337.594 176.148 337.762 175.741 338.062 175.441C338.362 175.141 338.769 174.972 339.194 174.972C339.618 174.972 340.025 175.141 340.325 175.441C340.625 175.741 340.793 176.148 340.793 176.573V186.231C340.793 186.656 340.625 187.063 340.325 187.363C340.025 187.663 339.618 187.832 339.194 187.832ZM185.613 168.626C185.188 168.626 184.782 168.458 184.481 168.157C184.181 167.857 184.013 167.45 184.013 167.026V157.383C184.013 156.958 184.181 156.551 184.481 156.251C184.782 155.951 185.188 155.782 185.613 155.782C186.037 155.782 186.444 155.951 186.744 156.251C187.044 156.551 187.213 156.958 187.213 157.383V167.042C187.213 167.466 187.044 167.873 186.744 168.173C186.444 168.474 186.037 168.642 185.613 168.642V168.626ZM339.194 168.498C338.769 168.498 338.362 168.33 338.062 168.029C337.762 167.729 337.594 167.322 337.594 166.898V157.247C337.594 156.822 337.762 156.415 338.062 156.115C338.362 155.815 338.769 155.646 339.194 155.646C339.618 155.646 340.025 155.815 340.325 156.115C340.625 156.415 340.793 156.822 340.793 157.247V166.914C340.793 167.338 340.625 167.745 340.325 168.045C340.025 168.346 339.618 168.514 339.194 168.514V168.498ZM185.613 149.292C185.188 149.292 184.782 149.124 184.481 148.824C184.181 148.524 184.013 148.116 184.013 147.692V138.057C184.013 137.633 184.181 137.226 184.481 136.925C184.782 136.625 185.188 136.457 185.613 136.457C186.037 136.457 186.444 136.625 186.744 136.925C187.044 137.226 187.213 137.633 187.213 138.057V147.724C187.213 148.148 187.044 148.556 186.744 148.856C186.444 149.156 186.037 149.324 185.613 149.324V149.292ZM339.194 149.156C338.769 149.156 338.362 148.988 338.062 148.688C337.762 148.387 337.594 147.98 337.594 147.556V137.921C337.594 137.497 337.762 137.089 338.062 136.789C338.362 136.489 338.769 136.321 339.194 136.321C339.618 136.321 340.025 136.489 340.325 136.789C340.625 137.089 340.793 137.497 340.793 137.921V147.588C340.793 148.012 340.625 148.42 340.325 148.72C340.025 149.02 339.618 149.188 339.194 149.188V149.156ZM185.613 129.951C185.188 129.951 184.782 129.782 184.481 129.482C184.181 129.182 184.013 128.775 184.013 128.35V118.731C184.013 118.307 184.181 117.9 184.481 117.6C184.782 117.299 185.188 117.131 185.613 117.131C186.037 117.131 186.444 117.299 186.744 117.6C187.044 117.9 187.213 118.307 187.213 118.731V128.398C187.213 128.823 187.044 129.23 186.744 129.53C186.444 129.83 186.037 129.999 185.613 129.999V129.951ZM339.194 129.815C338.769 129.815 338.362 129.646 338.062 129.346C337.762 129.046 337.594 128.639 337.594 128.214V118.603C337.594 118.179 337.762 117.772 338.062 117.472C338.362 117.171 338.769 117.003 339.194 117.003C339.618 117.003 340.025 117.171 340.325 117.472C340.625 117.772 340.793 118.179 340.793 118.603V128.262C340.793 128.687 340.625 129.094 340.325 129.394C340.025 129.694 339.618 129.863 339.194 129.863V129.815ZM185.613 110.609C185.188 110.609 184.782 110.44 184.481 110.14C184.181 109.84 184.013 109.433 184.013 109.008V99.4136C184.013 98.9891 184.181 98.582 184.481 98.2819C184.782 97.9817 185.188 97.8131 185.613 97.8131C186.037 97.8131 186.444 97.9817 186.744 98.2819C187.044 98.582 187.213 98.9891 187.213 99.4136V109.072C187.213 109.497 187.044 109.904 186.744 110.204C186.444 110.504 186.037 110.673 185.613 110.673V110.609ZM339.194 110.473C338.769 110.473 338.362 110.304 338.062 110.004C337.762 109.704 337.594 109.297 337.594 108.872V99.2775C337.594 98.8531 337.762 98.446 338.062 98.1459C338.362 97.8457 338.769 97.6771 339.194 97.6771C339.618 97.6771 340.025 97.8457 340.325 98.1459C340.625 98.446 340.793 98.8531 340.793 99.2775V108.936C340.793 109.361 340.625 109.768 340.325 110.068C340.025 110.368 339.618 110.537 339.194 110.537V110.473ZM185.613 91.2672C185.188 91.2672 184.782 91.0985 184.481 90.7984C184.181 90.4983 184.013 90.0911 184.013 89.6667V89.6267C184.013 86.382 184.211 83.1404 184.605 79.9198C184.631 79.7096 184.697 79.5066 184.802 79.3222C184.906 79.1379 185.045 78.9759 185.212 78.8455C185.379 78.7151 185.57 78.6188 185.773 78.5621C185.977 78.5055 186.191 78.4896 186.401 78.5154C186.611 78.5411 186.814 78.608 186.998 78.7122C187.182 78.8165 187.344 78.9559 187.474 79.1228C187.605 79.2896 187.701 79.4805 187.758 79.6845C187.814 79.8885 187.83 80.1017 187.804 80.3119C187.419 83.4019 187.221 86.5126 187.213 89.6267V89.7467C187.213 90.1712 187.044 90.5783 186.744 90.8784C186.444 91.1786 186.037 91.3472 185.613 91.3472V91.2672ZM339.194 91.2271C338.769 91.2271 338.362 91.0585 338.062 90.7584C337.762 90.4582 337.594 90.0511 337.594 89.6267C337.592 86.4728 337.397 83.3219 337.01 80.1919C336.984 79.9817 337 79.7685 337.057 79.5644C337.113 79.3604 337.21 79.1695 337.34 79.0027C337.47 78.8359 337.632 78.6964 337.816 78.5922C338.001 78.488 338.204 78.4211 338.414 78.3953C338.624 78.3696 338.837 78.3855 339.041 78.4421C339.245 78.4988 339.436 78.5951 339.602 78.7255C339.769 78.8559 339.909 79.0179 340.013 79.2022C340.117 79.3865 340.184 79.5895 340.21 79.7997C340.605 83.0604 340.8 86.3422 340.793 89.6267C340.793 90.0511 340.625 90.4582 340.325 90.7584C340.025 91.0585 339.618 91.2271 339.194 91.2271ZM188.012 72.2295C187.88 72.2293 187.749 72.2132 187.62 72.1815C187.417 72.1301 187.225 72.039 187.056 71.9134C186.888 71.7878 186.745 71.6303 186.638 71.4497C186.53 71.2691 186.459 71.069 186.429 70.8609C186.398 70.6528 186.409 70.4408 186.461 70.2369C187.259 67.0365 188.26 63.8904 189.46 60.8181C189.536 60.6213 189.651 60.4415 189.797 60.2891C189.943 60.1367 190.117 60.0147 190.311 59.9301C190.504 59.8455 190.712 59.8 190.923 59.7962C191.134 59.7924 191.344 59.8304 191.54 59.908C191.736 59.9855 191.915 60.1012 192.066 60.2482C192.218 60.3952 192.339 60.5707 192.422 60.7647C192.505 60.9586 192.549 61.1671 192.552 61.3782C192.554 61.5892 192.515 61.7986 192.436 61.9944C191.278 64.9278 190.308 67.9321 189.532 70.9891C189.452 71.3353 189.26 71.6451 188.985 71.8696C188.709 72.0942 188.367 72.2208 188.012 72.2295ZM336.794 72.1014C336.438 72.1016 336.092 71.9829 335.811 71.764C335.529 71.5451 335.329 71.2386 335.242 70.8931C334.461 67.8384 333.486 64.8367 332.323 61.9064C332.244 61.7106 332.204 61.5012 332.207 61.2902C332.209 61.0791 332.253 60.8706 332.337 60.6766C332.42 60.4827 332.541 60.3072 332.692 60.1601C332.843 60.0131 333.022 59.8975 333.219 59.8199C333.415 59.7424 333.624 59.7044 333.835 59.7082C334.046 59.712 334.254 59.7575 334.448 59.8421C334.641 59.9267 334.816 60.0487 334.962 60.2011C335.108 60.3535 335.222 60.5333 335.298 60.7301C336.51 63.7864 337.528 66.9162 338.346 70.1008C338.443 70.5081 338.377 70.9373 338.162 71.2963C337.946 71.6553 337.599 71.9157 337.194 72.0214C337.065 72.0673 336.93 72.0942 336.794 72.1014ZM195.052 54.2961C194.772 54.3028 194.495 54.2337 194.252 54.0961C193.881 53.8917 193.606 53.5488 193.488 53.1423C193.37 52.7359 193.417 52.2991 193.62 51.9275C195.204 49.0446 196.964 46.2625 198.891 43.597C199.14 43.2531 199.516 43.0225 199.935 42.9557C200.354 42.8889 200.783 42.9915 201.127 43.2408C201.47 43.4902 201.701 43.866 201.768 44.2854C201.835 44.7049 201.732 45.1337 201.483 45.4775C199.631 48.0376 197.94 50.7102 196.419 53.4799C196.283 53.7236 196.084 53.9272 195.844 54.0704C195.604 54.2136 195.331 54.2914 195.052 54.2961ZM329.699 54.1921C329.416 54.1946 329.137 54.1219 328.891 53.9813C328.645 53.8407 328.441 53.6373 328.299 53.3919C326.78 50.6195 325.086 47.9467 323.228 45.3895C323.104 45.2198 323.014 45.0273 322.965 44.8231C322.915 44.6188 322.906 44.4068 322.939 44.1991C322.971 43.9914 323.044 43.7921 323.153 43.6126C323.262 43.4331 323.406 43.2768 323.576 43.1528C323.745 43.0288 323.938 42.9395 324.142 42.8899C324.346 42.8402 324.558 42.8314 324.766 42.8637C324.973 42.896 325.172 42.9689 325.352 43.0782C325.531 43.1876 325.687 43.3312 325.811 43.5009C327.746 46.1588 329.512 48.9358 331.099 51.8154C331.24 52.0598 331.314 52.3371 331.313 52.6193C331.312 52.9014 331.237 53.1784 331.095 53.4221C330.953 53.6659 330.749 53.8677 330.504 54.0071C330.259 54.1466 329.981 54.2187 329.699 54.2161V54.1921ZM206.41 38.6995C206.098 38.7 205.792 38.6089 205.531 38.4376C205.269 38.2662 205.064 38.0221 204.94 37.7353C204.816 37.4485 204.778 37.1316 204.832 36.8237C204.886 36.5158 205.028 36.2304 205.242 36.0027C207.504 33.6082 209.908 31.3528 212.441 29.2487C212.768 28.977 213.189 28.8463 213.612 28.8853C214.035 28.9244 214.426 29.1299 214.697 29.4568C214.969 29.7836 215.099 30.205 215.06 30.6282C215.021 31.0514 214.816 31.4418 214.489 31.7134C212.063 33.7276 209.765 35.8925 207.61 38.1953C207.456 38.3588 207.27 38.4881 207.064 38.575C206.857 38.6618 206.634 38.7043 206.41 38.6995ZM318.396 38.6195C318.177 38.6198 317.961 38.5752 317.76 38.4885C317.559 38.4018 317.378 38.2748 317.228 38.1153C315.07 35.8177 312.77 33.6581 310.341 31.6494C310.013 31.3788 309.807 30.989 309.766 30.5658C309.726 30.1426 309.855 29.7207 310.125 29.3928C310.396 29.0648 310.785 28.8579 311.208 28.8173C311.631 28.7768 312.053 28.9061 312.381 29.1767C314.916 31.2761 317.32 33.5291 319.58 35.9227C319.794 36.1504 319.937 36.4358 319.991 36.7437C320.044 37.0516 320.007 37.3685 319.883 37.6552C319.758 37.942 319.553 38.1862 319.292 38.3575C319.03 38.5289 318.725 38.62 318.412 38.6195H318.396ZM221.192 26.4079C220.847 26.407 220.512 26.2945 220.236 26.0873C219.96 25.8801 219.759 25.5892 219.661 25.2581C219.564 24.9269 219.577 24.5732 219.697 24.2497C219.817 23.9262 220.039 23.6502 220.328 23.463C223.099 21.6988 225.976 20.1086 228.943 18.7016C229.327 18.5201 229.768 18.4987 230.167 18.642C230.567 18.7853 230.894 19.0816 231.075 19.4658C231.256 19.8499 231.278 20.2904 231.135 20.6904C230.991 21.0903 230.695 21.417 230.311 21.5984C227.464 22.9435 224.704 24.467 222.048 26.1598C221.792 26.3219 221.495 26.4079 221.192 26.4079ZM303.518 26.3518C303.215 26.3519 302.918 26.2659 302.662 26.1038C300.007 24.406 297.247 22.8772 294.399 21.5264C294.023 21.3411 293.735 21.0156 293.596 20.6199C293.458 20.2242 293.48 19.7899 293.658 19.4104C293.836 19.0309 294.156 18.7364 294.549 18.5904C294.942 18.4444 295.376 18.4584 295.759 18.6295C298.736 20.0306 301.621 21.6182 304.398 23.383C304.691 23.5688 304.917 23.8451 305.039 24.1702C305.162 24.4953 305.175 24.8515 305.078 25.185C304.98 25.5184 304.777 25.8111 304.498 26.0187C304.22 26.2263 303.881 26.3377 303.534 26.3358L303.518 26.3518ZM238.598 18.1654C238.218 18.1646 237.851 18.0283 237.562 17.7811C237.273 17.5338 237.081 17.1918 237.022 16.8162C236.962 16.4406 237.038 16.056 237.236 15.7314C237.434 15.4067 237.741 15.1632 238.102 15.0445C241.228 14.0252 244.416 13.2047 247.645 12.5877C247.852 12.5484 248.065 12.5503 248.271 12.5934C248.477 12.6365 248.673 12.7199 248.847 12.8389C249.021 12.9579 249.169 13.11 249.284 13.2866C249.399 13.4633 249.478 13.6609 249.517 13.8681C249.594 14.284 249.504 14.7135 249.265 15.0629C249.027 15.4123 248.66 15.6531 248.245 15.7327C245.149 16.3272 242.093 17.1129 239.094 18.0854C238.934 18.138 238.767 18.165 238.598 18.1654ZM286.088 18.1254C285.92 18.1251 285.753 18.1008 285.592 18.0534C282.595 17.0787 279.539 16.2982 276.441 15.7167C276.032 15.6304 275.673 15.3871 275.441 15.039C275.209 14.6909 275.122 14.2657 275.199 13.8545C275.277 13.4432 275.512 13.0787 275.855 12.8389C276.198 12.5991 276.621 12.5032 277.033 12.5717C280.262 13.1701 283.449 13.9719 286.576 14.9724C286.937 15.091 287.243 15.3338 287.441 15.6577C287.639 15.9815 287.716 16.3652 287.657 16.7403C287.599 17.1154 287.409 17.4574 287.121 17.7052C286.834 17.9531 286.468 18.0906 286.088 18.0934V18.1254ZM257.516 14.5563C257.092 14.5701 256.679 14.4147 256.369 14.1243C256.06 13.8339 255.878 13.4323 255.864 13.0079C255.85 12.5834 256.006 12.1708 256.296 11.8609C256.586 11.551 256.988 11.3692 257.412 11.3554C260.691 11.1513 263.98 11.1513 267.259 11.3554C267.469 11.368 267.674 11.4219 267.864 11.5139C268.053 11.606 268.222 11.7345 268.362 11.892C268.501 12.0496 268.609 12.2331 268.677 12.4321C268.746 12.6311 268.775 12.8417 268.762 13.0519C268.75 13.2621 268.696 13.4677 268.604 13.657C268.512 13.8464 268.383 14.0158 268.226 14.1555C268.068 14.2952 267.885 14.4025 267.686 14.4712C267.487 14.54 267.277 14.5689 267.067 14.5563C263.918 14.3603 260.76 14.3603 257.612 14.5563H257.516Z" fill="#113B65"/>
<path d="M301.39 204.861C301.187 204.862 300.985 204.821 300.798 204.741C300.524 204.85 300.225 204.882 299.935 204.832C299.644 204.782 299.372 204.653 299.151 204.458C298.929 204.263 298.765 204.011 298.677 203.729C298.59 203.447 298.582 203.146 298.655 202.86C299.02 201.422 299.203 199.943 299.199 198.459C299.199 198.035 299.367 197.628 299.667 197.327C299.967 197.027 300.374 196.859 300.798 196.859C301.223 196.859 301.63 197.027 301.93 197.327C302.23 197.628 302.398 198.035 302.398 198.459C302.398 199.93 302.58 201.395 302.942 202.82C303.047 203.231 302.984 203.666 302.768 204.031C302.552 204.395 302.201 204.659 301.79 204.765C301.662 204.816 301.528 204.849 301.39 204.861Z" fill="#113B65"/>
<path d="M276.594 218.609C276.453 218.606 276.314 218.587 276.178 218.553C272.623 217.591 269.388 215.702 266.803 213.079C266.504 212.778 266.336 212.37 266.338 211.945C266.339 211.521 266.509 211.114 266.811 210.815C267.112 210.516 267.52 210.348 267.944 210.35C268.369 210.351 268.775 210.521 269.074 210.823C271.263 213.043 274.001 214.642 277.009 215.456C277.391 215.551 277.723 215.784 277.944 216.109C278.165 216.434 278.259 216.829 278.208 217.218C278.156 217.608 277.963 217.965 277.666 218.222C277.368 218.478 276.986 218.616 276.594 218.609ZM286.616 218.609C286.223 218.616 285.842 218.478 285.544 218.222C285.247 217.965 285.054 217.608 285.002 217.218C284.951 216.829 285.045 216.434 285.265 216.109C285.486 215.784 285.819 215.551 286.2 215.456C289.206 214.641 291.941 213.042 294.127 210.823C294.425 210.52 294.831 210.349 295.256 210.346C295.68 210.343 296.089 210.509 296.391 210.807C296.693 211.105 296.865 211.511 296.868 211.936C296.871 212.361 296.705 212.769 296.407 213.071C293.822 215.694 290.586 217.583 287.032 218.545C286.897 218.585 286.757 218.607 286.616 218.609Z" fill="#113B65"/>
</svg>
